<?xml version="1.0" encoding="UTF-8" standalone="no"?>
<svg
   xmlns:ns0="http://www.iki.fi/pav/software/textext/"
   xmlns:dc="http://purl.org/dc/elements/1.1/"
   xmlns:cc="http://creativecommons.org/ns#"
   xmlns:rdf="http://www.w3.org/1999/02/22-rdf-syntax-ns#"
   xmlns:svg="http://www.w3.org/2000/svg"
   xmlns="http://www.w3.org/2000/svg"
   xmlns:sodipodi="http://sodipodi.sourceforge.net/DTD/sodipodi-0.dtd"
   xmlns:inkscape="http://www.inkscape.org/namespaces/inkscape"
   viewBox="0 0 450 280"
   version="1.1"
   id="svg3907"
   sodipodi:docname="cp_model1.svg"
   inkscape:version="0.92.2 2405546, 2018-03-11"
   inkscape:export-filename="/home/pholi/Documents/edu/Misc/Courses/INF7900/Presentation/img/model4.png"
   inkscape:export-xdpi="240"
   inkscape:export-ydpi="240"
   width="450"
   height="280">
  <sodipodi:namedview
     pagecolor="#ffffff"
     bordercolor="#666666"
     borderopacity="1"
     objecttolerance="10"
     gridtolerance="10"
     guidetolerance="10"
     inkscape:pageopacity="0"
     inkscape:pageshadow="2"
     inkscape:window-width="1920"
     inkscape:window-height="1020"
     id="namedview3909"
     showgrid="false"
     inkscape:zoom="2.8284271"
     inkscape:cx="165.33756"
     inkscape:cy="127.11623"
     inkscape:window-x="0"
     inkscape:window-y="31"
     inkscape:window-maximized="1"
     inkscape:current-layer="svg3907" />
  <metadata
     id="metadata3913">
    <rdf:RDF>
      <cc:Work
         rdf:about="">
        <dc:format>image/svg+xml</dc:format>
        <dc:type
           rdf:resource="http://purl.org/dc/dcmitype/StillImage" />
        <dc:title></dc:title>
      </cc:Work>
    </rdf:RDF>
  </metadata>
  <defs
     id="defs3911" />
  <text
     xml:space="preserve"
     style="font-style:normal;font-variant:normal;font-weight:normal;font-stretch:normal;font-size:28.67650986px;line-height:1.25;font-family:sans-serif;-inkscape-font-specification:'sans-serif, Normal';font-variant-ligatures:normal;font-variant-caps:normal;font-variant-numeric:normal;font-feature-settings:normal;text-align:start;letter-spacing:0px;word-spacing:0px;writing-mode:lr-tb;text-anchor:start;fill:#000000;fill-opacity:1;stroke:none;stroke-width:0.71691275"
     x="64.464226"
     y="36.14777"
     id="text865-9"><tspan
       sodipodi:role="line"
       id="tspan5339-3"
       x="64.464226"
       y="36.14777"
       style="font-size:8px;stroke-width:0.71691275">\huge \textbf{$\in$ \{$\quad, \quad, \dots, \quad$\}}</tspan></text>
  <circle
     r="12.431232"
     cx="126.62193"
     cy="27.392164"
     style="fill:#8b4513;stroke-width:0.1963736"
     id="ellipse1040-37" />
  <circle
     r="12.431232"
     cx="168.93988"
     cy="27.49728"
     style="fill:#8b4513;stroke-width:0.1963736"
     id="ellipse1040-3-5" />
  <circle
     r="12.431232"
     cx="261.63293"
     cy="27.349386"
     style="fill:#8b4513;stroke-width:0.1963736"
     id="ellipse1040-6-9" />
  <ellipse
     cx="37.076881"
     cy="31.307018"
     rx="3.4568205"
     ry="3.4568174"
     style="fill:#40008a;stroke-width:0.35670421"
     id="ellipse3893-9" />
  <circle
     cx="44.200886"
     cy="37.514301"
     style="fill:#40008a;stroke-width:0.35670421"
     id="ellipse3895-1"
     r="3.4568205" />
  <ellipse
     cx="41.198418"
     cy="22.860197"
     rx="3.4568138"
     ry="3.4568274"
     style="fill:#40008a;stroke-width:0.35670421"
     id="ellipse3897-2" />
  <ellipse
     cx="50.256107"
     cy="23.674307"
     rx="3.4568205"
     ry="3.4568274"
     style="fill:#40008a;stroke-width:0.35670421"
     id="ellipse3899-7" />
  <ellipse
     cx="51.630196"
     cy="32.22298"
     rx="3.4568107"
     ry="3.4568243"
     style="fill:#40008a;stroke-width:0.35670382"
     id="ellipse3901-0" />
  <g
     ns0:inkscapeversion="0.92.2"
     ns0:scale="1.0"
     ns0:preamble="/usr/share/inkscape/extensions/default_packages.tex"
     ns0:text="\\large \\textbf{1}"
     ns0:pdfconverter="pstoedit"
     ns0:texconverter="pdflatex"
     ns0:version="0.7.2"
     word-spacing="normal"
     letter-spacing="normal"
     font-size-adjust="none"
     font-stretch="normal"
     font-weight="normal"
     font-variant="normal"
     font-style="normal"
     stroke-miterlimit="10.433"
     xml:space="preserve"
     transform="matrix(1.333333,0,0,-1.333333,-75.754285,975.26314)"
     id="content"
     style="font-style:normal;font-variant:normal;font-weight:normal;font-stretch:normal;letter-spacing:normal;word-spacing:normal;text-anchor:start;fill:#ffffff;fill-opacity:1;fill-rule:evenodd;stroke:#000000;stroke-linecap:butt;stroke-linejoin:miter;stroke-miterlimit:10.43299961;stroke-dasharray:none;stroke-dashoffset:0;stroke-opacity:1">
<path
   id="path379"
   d="m 152.85,714.6 v 0.01 0.02 0.02 0.01 0.01 0.02 0.01 0.01 0.02 0.01 0.01 0.01 l -0.01,0.01 v 0.01 0.01 0.01 0.01 0.01 h -0.01 v 0.01 0.02 l -0.01,0.01 v 0.01 l -0.01,0.01 -0.01,0.01 -0.01,0.01 -0.01,0.01 -0.01,0.01 h -0.02 l -0.01,0.01 h -0.02 v 0 h -0.01 l -0.01,0.01 h -0.01 -0.01 -0.01 -0.01 -0.01 -0.02 -0.01 -0.01 -0.01 -0.02 -0.01 -0.01 -0.02 -0.01 -0.02 -0.02 -0.01 l -0.02,0.01 h -0.02 c -0.88,-0.77 -2.21,-0.77 -2.47,-0.77 h -0.23 v -0.51 h 0.23 c 0.42,0 1.05,0.07 1.53,0.23 v -6.26 h -1.66 v -0.52 c 0.5,0.03 1.75,0.03 2.32,0.03 0.56,0 1.83,0 2.33,-0.03 v 0.52 h -1.64 z"
   inkscape:connector-curvature="0"
   style="fill:#ffffff;stroke-width:0" />
</g>  <g
     style="font-style:normal;font-variant:normal;font-weight:normal;font-stretch:normal;letter-spacing:normal;word-spacing:normal;text-anchor:start;fill:#ffffff;fill-opacity:1;fill-rule:evenodd;stroke:#000000;stroke-linecap:butt;stroke-linejoin:miter;stroke-miterlimit:10.43299961;stroke-dasharray:none;stroke-dashoffset:0;stroke-opacity:1"
     id="g560"
     transform="matrix(1.333333,0,0,-1.333333,-33.614767,975.26313)"
     xml:space="preserve"
     stroke-miterlimit="10.433"
     font-style="normal"
     font-variant="normal"
     font-weight="normal"
     font-stretch="normal"
     font-size-adjust="none"
     letter-spacing="normal"
     word-spacing="normal"
     ns0:version="0.7.2"
     ns0:texconverter="pdflatex"
     ns0:pdfconverter="pstoedit"
     ns0:text="\\large \\textbf{2}"
     ns0:preamble="/usr/share/inkscape/extensions/default_packages.tex"
     ns0:scale="1.0"
     ns0:inkscapeversion="0.92.2">
<path
   style="fill:#ffffff;stroke-width:0"
   inkscape:connector-curvature="0"
   d="m 154.75,709.69 h -0.5 c -0.04,-0.25 -0.12,-0.96 -0.3,-1.08 -0.1,-0.08 -1.03,-0.08 -1.21,-0.08 h -1.85 c 0.45,0.38 1.54,1.29 1.72,1.42 1.33,0.99 2.14,1.6 2.14,2.74 0,1.41 -1.28,2.26 -2.86,2.26 -1.35,0 -2.51,-0.77 -2.51,-1.9 0,-0.63 0.52,-0.81 0.79,-0.81 0.37,0 0.8,0.25 0.8,0.8 0,0.5 -0.37,0.75 -0.74,0.8 0.48,0.55 1.11,0.59 1.36,0.59 1.1,0 1.63,-0.89 1.63,-1.75 0,-0.93 -0.63,-1.79 -1.12,-2.3 l -2.6,-2.71 c -0.12,-0.1 -0.12,-0.13 -0.12,-0.34 v -0.21 h 5.02 z"
   id="path558" />
</g>  <g
     ns0:inkscapeversion="0.92.2"
     ns0:scale="1.0"
     ns0:preamble="/usr/share/inkscape/extensions/default_packages.tex"
     ns0:text="\\large \\textbf{m}"
     ns0:pdfconverter="pstoedit"
     ns0:texconverter="pdflatex"
     ns0:version="0.7.2"
     word-spacing="normal"
     letter-spacing="normal"
     font-size-adjust="none"
     font-stretch="normal"
     font-weight="normal"
     font-variant="normal"
     font-style="normal"
     stroke-miterlimit="10.433"
     xml:space="preserve"
     transform="matrix(1.333333,0,0,-1.333333,56.018375,973.85538)"
     id="g744"
     style="font-style:normal;font-variant:normal;font-weight:normal;font-stretch:normal;letter-spacing:normal;word-spacing:normal;text-anchor:start;fill:#ffffff;fill-opacity:1;fill-rule:evenodd;stroke:#000000;stroke-linecap:butt;stroke-linejoin:miter;stroke-miterlimit:10.43299961;stroke-dasharray:none;stroke-dashoffset:0;stroke-opacity:1">
<path
   id="path742"
   d="m 158.8,710.77 v 0.1 0.1 l -0.01,0.1 -0.01,0.09 -0.01,0.09 -0.02,0.09 -0.02,0.08 -0.02,0.08 -0.02,0.08 -0.03,0.08 -0.04,0.07 -0.03,0.07 -0.04,0.06 -0.05,0.07 -0.04,0.06 -0.06,0.05 -0.05,0.06 -0.06,0.05 -0.06,0.04 -0.07,0.05 -0.07,0.04 -0.08,0.03 -0.08,0.04 -0.08,0.03 -0.09,0.02 -0.1,0.02 -0.09,0.02 -0.11,0.02 -0.11,0.01 -0.11,0.01 -0.12,0.01 H 157 c -1.21,0 -1.77,-0.81 -1.96,-1.19 -0.19,1.01 -1.01,1.19 -1.77,1.19 -1.15,0 -1.77,-0.74 -2.02,-1.31 h -0.01 v 1.31 l -2.03,-0.1 v -0.51 c 0.75,0 0.83,0 0.83,-0.46 v -3.78 h -0.83 v -0.52 c 0.28,0.03 1.14,0.03 1.47,0.03 0.34,0 1.21,0 1.49,-0.03 v 0.52 h -0.83 v 2.54 c 0,1.3 0.97,1.92 1.73,1.92 0.44,0 0.7,-0.27 0.7,-1.2 v -3.26 h -0.82 v -0.52 c 0.27,0.03 1.13,0.03 1.47,0.03 0.33,0 1.2,0 1.48,-0.03 v 0.52 h -0.83 v 2.54 c 0,1.3 0.97,1.92 1.73,1.92 0.44,0 0.7,-0.27 0.7,-1.2 v -3.26 h -0.82 v -0.52 c 0.27,0.03 1.13,0.03 1.47,0.03 0.33,0 1.2,0 1.48,-0.03 v 0.52 h -0.83 z"
   inkscape:connector-curvature="0"
   style="fill:#ffffff;stroke-width:0" />
</g>  <flowRoot
     xml:space="preserve"
     id="flowRoot846"
     style="fill:black;fill-opacity:1;stroke:none;font-family:sans-serif;font-style:normal;font-weight:normal;font-size:10.66666667px;line-height:1.25;letter-spacing:0px;word-spacing:0px"><flowRegion
       id="flowRegion848"><rect
         id="rect850"
         width="93.69165"
         height="36.769554"
         x="330.21887"
         y="68.928627" /></flowRegion><flowPara
       id="flowPara852" /></flowRoot></svg>
